<?xml version="1.0" encoding="utf-8"?>
<!-- Generator: Adobe Illustrator 28.0.0, SVG Export Plug-In . SVG Version: 6.00 Build 0)  -->
<svg version="1.1" id="Layer_1" xmlns="http://www.w3.org/2000/svg" xmlns:xlink="http://www.w3.org/1999/xlink" x="0px" y="0px"
	 viewBox="0 0 3783 4092" style="enable-background:new 0 0 3783 4092;" xml:space="preserve">
<style type="text/css">
	.st0{fill:#DAA520;}
	.st1{fill:#EC9898;}
	.st2{fill:#F2B8B8;}
</style>
<g>
	<path class="st0" d="M3778,2650c0,4.7,0,9.3,0,14c-1.4,2.9-3,5.6-4.2,8.6c-6.9,17-12.6,34.9-34.8,38c-0.6,0.1-1.2,0.5-1.9,0.7
		c-40.6,15.3-77,38.2-110.3,65.6c-31.1,25.6-61,52.6-91.4,79.1c-22.1,19.3-44.9,37.7-69.5,53.8c-23.1,15.1-46.9,29.4-69.4,45.3
		c-24,17-43.4,38.5-53.6,66.8c-7.2,20-13.6,40.3-20.3,60.5c-6.4,19.5-14.8,37.8-29.8,52.4c-18.3,17.8-40.4,29-64.3,37.1
		c-23.6,8-48.5,10.8-72.7,16.7c-13.2,3.2-26.6,6.5-39.1,11.8c-37.7,15.9-63.4,44.7-80.6,81c-14.2,30-18.6,62.4-19.8,95.1
		c-0.5,14.2,1.5,28.5,1.8,42.8c0.3,17.2,4.7,33.6,8.2,50.2c4,19.5,8.9,38.8,10.1,58.9c0.3,5.4,2.9,10.6,4.5,16
		c0.1,2.6,0.1,5.2,0.2,7.7c0,3.3,0,6.5,0,9.8c0,1.9-0.1,3.8-0.1,5.7c-1.4,2.9-3.8,5.7-4.1,8.8c-0.9,7.3-5,12.3-10.4,16.4
		c-4.5,3.4-9.2,6.7-14.2,9.2c-11.9,5.9-24.4,10.4-37.6,13c-16.9,3.3-33.7,7.3-50.5,11c-10.7,2.4-21.6,3.8-32,7.2
		c-20.8,6.8-41.4,14.5-62,22.2c-46.7,17.5-90.3,40.7-130.2,70.8c-27.6,20.9-51.4,45.4-71.2,73.6c-17.6,25.1-32.8,51.7-46.1,79.3
		c-14.1,29.1-24.9,59.5-33.9,90.4c-5.6,19.2-6.3,39.3-8.7,59.1c-1.6,13.3-4.3,26.2-11.8,37.7c-4.5,6.9-10.3,11.1-19.1,10.4
		c-4.6-0.4-9.4-0.5-14,0c-22.1,2.4-41.9-4.8-61.1-14.7c-16.3-8.4-32.5-16.9-49.1-24.7c-6.8-3.2-14.3-6.1-21.7-6.6
		c-11.6-0.8-23.3,0.2-34.9,1.1c-5.9,0.5-10.5-0.4-13.9-5.4c-1.5-2.2-3.3-4.2-4.8-6.4c-32.4-45.4-67.6-88.3-109.1-125.7
		c-20.8-18.8-43-35.7-67.6-49.4c-23.7-13.2-48.4-22.7-75.3-27.8c-26.9-5.1-53-3.5-79,2.6c-23.4,5.5-45,16.2-65.8,28.3
		c-30,17.5-52.6,41.1-66.2,73.5c-9.4,22.4-20.1,44.2-31.2,65.8c-15.8,30.5-40.1,50.1-75,54.9c-36.8,5-71.5-2-104.5-18.7
		c-30.1-15.3-56.5-36.3-83.9-55.7c-27.4-19.4-54.3-39.8-88.1-47.6c-12.6-2.9-25.4-3.5-37.6-0.8c-14.2,3.2-28.3,7.9-41.3,14.4
		c-29.4,14.7-58.2,30.9-87.1,46.6c-28.1,15.2-55.4,31.8-85.1,44c-24.2,9.9-48.9,17.1-75.6,14.3c-10.4-1.1-18.1-5.2-24.4-13.4
		c-10.6-14-13-30.7-15-47c-2.5-20.8-3.3-41.8-4.5-62.7c-1.5-27.1-10.1-51.1-27.2-72.5c-22.7-28.4-50.1-51.5-79.4-72.6
		c-39.3-28.3-81.6-51.4-126.8-69.2c-24.4-9.7-48.9-19.3-74.4-25.9c-19.6-5-39-10.8-58.5-15.8c-15.4-4-31-7.6-46.5-11
		c-15.6-3.5-31.2-6.7-46.9-9.7c-17.3-3.3-34.7-5.9-52-9.2c-18.2-3.5-36.4-7.3-54.5-11.1c-14.6-3.1-29.3-5.9-43.7-9.7
		c-19.3-5-38.5-10.4-57.5-16.5c-23.1-7.4-45.9-15.7-68.8-23.6c-3.1-1.1-7.2-1.6-6.6-6.1c0.7-4.8,5.1-4.4,8.7-4.9c3-0.4,6-0.3,8.9-1
		c4.1-1,8.1-2.5,12.2-3.8c1.9-0.1,3.8-0.1,5.7-0.2c8.7,3.7,15.5-1.1,22.3-5.2c14.2-8.7,28.1-17.8,42.3-26.6
		c9-5.6,15.7-13.3,20.3-22.9c4.2-8.7,8-17.6,12.3-26.2c15.1-30,22.8-62,21.8-95.4c-0.9-27-6.4-53.5-15-79.2
		c-10.8-32.7-25.5-63.5-44-92.6c-23.7-37.4-51.7-71.1-86.2-99.1c-11.1-9-23-17.2-37.2-20.8c-23-5.8-46.9-4.5-70.3-8.2
		c-9.3-1.5-18.3-3.5-26.7-7.3c-18.5-8.4-33.4-22.1-47.4-36.3c-18-18.2-35.4-37.2-51.5-57.1c-43.1-53-79.5-110.1-103-174.7
		c-6.4-17.4-12.3-35.1-10.4-54.3c0.6-5.9,0-12,0.1-18c0.1-2.9,0.5-5.8,0.9-9.9c4.9,0.5,9.2,0.6,13.3,1.5c27.3,5.9,54.9,5.6,82.6,4.9
		c9.3-0.3,18.7-0.4,27.9-2c23.3-4.1,46-9.9,68-19.1c55.3-23,95.6-62.1,123.6-114.3c14-26.2,23.8-54.3,28.9-83.7
		c2.8-16,6-32,5.3-48.5c-1.2-29.2,2.3-58.6-4-87.7c-2.6-12-2.4-24.7-6-36.3c-8-26-17.6-51.6-26.6-77.3
		c-6.9-19.8-14.5-39.3-20.5-59.3c-3.6-12.2-4-25,2.2-37c3.5-6.8,6.7-13.8,10-20.7c13.3-27.6,6.8-53.1-12.9-72.1
		c-5.9-5.7-12.6-11.2-19.7-15.1c-16.9-9.3-34.4-17.5-51.6-26.3c-14-7.1-27.8-14.3-39.8-24.6c-11.7-10.1-20-22.8-22.8-37.8
		c-3.9-21.1,0.9-40.7,16.5-56.1c11.6-11.5,23.5-22.7,36.4-32.7c23.9-18.6,49.1-35.5,71.3-56.3c26.7-25.1,44.6-54.4,48.1-91.5
		c0.5-5.3,0.2-10-2.5-14.4c-3.5-5.6-6.9-11.5-11.4-16.4c-32.5-36-73.4-54.1-121.6-56.4c-17.5-0.8-34.6,2.1-50.9,8.4
		c-6.2,2.4-11.1,1.3-15.6-2.8c-2.9-2.7-5.3-5.9-8-8.8c-1.5-1.6-3.3-3-5-4.5c-0.4-0.9-0.8-1.7-1.2-2.6c0.1-1.2,0.1-2.4,0.2-3.7
		c-0.3-1-0.5-2-0.8-3c-0.6,0.6-1.2,1.2-1.9,1.8c0,0,0-0.2,0-0.2c-0.6-4.3-1.1-8.5-1.7-12.8c0-7.9,0-15.9,0.1-23.8
		c0.3-1.9,0.5-3.8,0.8-5.7c3.2-2.8,5.2-6,3.1-10.4c4.4-21.5,11.8-42.1,19.6-62.6c1.3-3.5,2.2-8.2,0.9-11.3
		c-5.8-13.5-9.5-27.3-12.2-41.8c-4.9-26.3-12.1-52.2-18.2-78.3c-1.4-5.9-1.9-11.9,2.6-17c2.9,0,5.7,0,8.6,0c2.9,1.5,5.8,3.2,8.8,4.4
		c6.2,2.4,12.6,4.3,18.6,7c24.6,10.7,46.3,26.2,68.4,41c24.3,16.3,48.2,33.4,74.7,46.2c29,14.1,59.3,23.4,92.1,22.6
		c16.1-0.4,31.6-3.2,47.1-7.6c19.4-5.5,37.5-13.3,54.6-23.9c25.4-15.8,47.2-35.8,67.1-58c14.9-16.7,27.5-35,36.6-55.7
		c5.9-13.4,13.1-26.2,20.3-38.9c4.9-8.8,12.5-15.5,21-21c4.4-2.9,8.3-2.9,12.9,0.2c9.1,6.2,18.4,12,27.7,17.8
		c10.4,6.5,20.7,13.4,31.6,19.1c19.6,10.3,39.7,12.6,60.1,1.4c13.6-7.4,25.2-17.4,35.5-28.8c1.6-1.7,2.3-4.8,2.5-7.3
		c1-15.6-3.7-28.9-16.5-38.7c-6.3-4.9-12.6-9.8-19-14.6c-12.7-9.4-20.9-21.9-22-37.6c-0.9-12.2,0-24.6,1.1-36.8
		c2-20.8,7.3-41.3,6.7-62.5c-0.4-16.6-4.5-32-14.9-44.6c-10.1-12.3-21.6-23.5-33.1-34.5c-14.5-13.8-30.1-26.3-44.4-40.3
		c-19.6-19.2-37.5-39.7-43.7-67.8c-4.7-21.2,1-39.8,12.6-58.3c2.9,1.8,5.1,3,7.3,4.4c5.6,3.6,10.8,7.9,16.7,10.9
		c11.5,5.8,23.1,12.1,36.8,9.9c1.2,0.1,2.4,0.1,3.6,0.2c5.3,2.4,10.6,2.4,15.8,0c3.2-0.1,6.4-0.2,9.6-0.3c9.6,0.1,19.2,0,28.9,0.3
		c8,0.3,15.5-2,21.4-7c8.4-7,16.7-14.3,23.6-22.7c16.8-20.5,27.7-44.5,38.6-68.5c11.7-25.7,22.5-52,35.6-77
		c22.4-42.8,49.1-83.1,77.2-122.4c23.8-33.4,50.2-64.7,78.5-94.4c8.8-9.2,13-9.7,24.8-5.3c17.9,6.7,28.5,20.2,35.9,36.8
		c10.1,22.5,12.7,46.7,16.6,70.7c3.6,22.7,5.9,45.5,9.8,68.1c2.5,14.8,7.4,29.1,16,41.7c5.8,8.5,13.1,16,23.5,17.3
		c9.8,1.2,20.2,1.3,29.7-1c21.6-5.1,42.9-11.9,64.3-18c5.1-1.5,10.3-2.9,15.5-4c10.1-2.2,13.5,0.3,14.9,10.4c0.1,0.7,0.1,1.3,0.2,2
		c1.9,21.9-2.2,43.1-8.2,64c-1.7,5.9-5.5,10.1-11.4,13c-17.6,8.8-33.8,20-48.6,33c-15.3,13.5-29.5,27.8-39.4,46
		c-13.4,24.7-10.8,47.9,5.3,70.3c9.8,13.7,22.6,24.5,36.3,34c32.8,23,69.1,38.3,108,47.8c23.8,5.8,47.8,8.9,72.2,7
		c10.2-0.8,20.4-3.1,30.2-6c20.7-6.2,36.7-19.8,51.6-34.8c25.7-26.1,45.3-56.6,62.3-88.8c19.1-36.3,35.1-73.9,49.5-112.3
		c8.2-21.8,16.3-43.6,23.7-65.7c6.5-19.2,11.2-39,18-58.1c15.4-43.6,47.4-67.6,92.1-76.3c4.1-0.8,8.1-2.7,12.1-4.2
		c1.2-0.1,2.4-0.1,3.6-0.2c12.4,0,24.7,0,37.1,0c1.8,0.1,3.7,0.2,5.5,0.3c3.4,1.3,6.7,3,10.2,3.7c9.1,1.8,18.4,2.8,27.5,4.8
		c21.1,4.8,42,10.1,63.1,15c16.2,3.8,32.3,7.7,48.6,10.9c11.7,2.3,23.8,2.9,35.4,5.4c20.8,4.5,41.6,1.8,61.4-3.1
		c39.6-9.7,76.7-26.2,111.8-47.2c40.3-24,73.3-55.2,97-95.8c11.1-19,22-38,32.7-57.2c16-28.8,32.5-57.4,54-82.6
		c13.3-15.6,28.4-29,45.8-39.8c7.7-4.8,16.1-6.6,24.9-4.3c6.1,1.6,12.2,3.6,17.8,6.5c20,10.5,39.7,21.7,59.8,32.1
		c19,9.8,38.6,17.7,60.3,19.5c28.1,2.4,54.1-5.4,79.6-15.3c34.7-13.6,66.2-33,94.8-56.5c21.8-18,42.6-37.2,63.7-56.1
		c4.5-4,9.1-6.7,15.2-5.8c12.2,1.8,24.6,2.6,36.4,5.7c24.4,6.4,48.3,14.6,72.8,21c13.8,3.6,28,6.4,42.5,5c21-2,41.2-7.4,60.2-16.8
		c35.4-17.6,64.6-43.2,92.1-71c26.3-26.6,49.7-55.6,72.9-84.9c7-8.9,14-17.8,21.4-26.4c2.4-2.9,5.8-7,8.7-7c4.9,0,3.8,6,5.3,9.5
		c1.1,2.7,2.4,5.3,3.6,8c0.1,2.5,0.2,5.1,0.3,7.6c0,2.6-0.4,5.2,0.1,7.7c1.3,7.5,4.1,14.9,4.3,22.3c1.1,51.9,2.1,103.7,2.3,155.6
		c0,11.5-2.4,23.2-5.4,34.3c-5.4,20.8-16,39.2-28.4,56.7c-19.9,28-42.7,53.5-65.8,78.8c-5.9,6.5-10.8,14-16.1,21.1
		c0,0-0.3,0.3-0.3,0.3c-2.3,1.7-5,3.1-6.9,5.1c-7,7.5-13.9,15.1-20.5,22.9c-2.5,2.9-4.2,6.5-6.3,9.7c0,0-0.3,0.3-0.3,0.3
		c-1.9,1.2-4,2.3-5.6,3.7c-10.3,9.3-16.6,21.5-23.2,33.5c-23.4,42.6-47,85.1-70.3,127.7c-3.1,5.7-7.1,9.9-13.3,11.1
		c-8.8,1.7-17.7,3.9-26.5,3.7c-22.3-0.4-44.6-1.5-66.9-3.1c-31.3-2.2-59.6,4-82.6,26.9c-4.3,4.2-8.9,8.1-13,12.4
		c-5,5.3-10.6,6.4-17.2,3.9c-1.9-0.7-3.8-1.3-5.6-2.1c-25.4-9.9-50.6-20.4-77.8-24.7c-23.1-3.6-46-3-67.5,6.7
		c-9.3,4.2-17.6,10.7-26.2,16.4c-9.5,6.2-18.5,13.1-28.3,18.6c-15,8.4-30.6,9.6-47,3c-30.2-12.3-60.5-24.4-91.1-35.7
		c-11-4.1-22.5-8.6-34.9-5.8c-1.2-0.1-2.4-0.1-3.6-0.2c-8.6-3.1-17.2-3.2-25.8,0c-1.9,0.1-3.7,0.1-5.6,0.2c-4.6-0.1-9.5-1.2-13.8,0
		c-15.3,4.2-30.8,8-45.5,13.9c-41.2,16.5-74.9,43.7-104.5,76.3c-15,16.6-25.8,35.5-31.4,57c-2.2,8.5-6.8,16.8-4.4,26.2
		c-0.1,1.2-0.2,2.4-0.3,3.6c-1.4,5.7-3.8,11.4-4,17.2c-0.8,25.9-1.5,51.7,2.6,77.6c3.8,24.1,8.8,47.6,17.6,70.3
		c7.6,19.7,17.3,38.1,32.8,53c12.1,11.5,26.3,17.8,43.1,17.9c11.3,0,22.6,0,33.9-0.8c6.5-0.5,12.9-2.6,19.4-3.9
		c1.9-0.1,3.7-0.2,5.6-0.2c9,0,18,0,26.9,0c1.2,0.1,2.4,0.1,3.6,0.2c3,1.3,6.1,2.6,9.1,4c9,4.2,18.3,7.9,26.9,12.7
		c6.9,3.9,12.9,9.4,19.7,13.7c8.1,5.1,16.4,10.3,25.1,14.1c11.7,5,23.6,5.9,34.9-2.2c8.6-6.2,17.9-11.5,26.7-17.4
		c20.9-14,42.3-26.5,68.2-28.7c6.1-0.5,7.8-2.8,8.3-9.2c0.3-3.6,0.4-7.3,0.3-11c-0.1-8.5,3.9-14.6,10.7-19.1c3.9-2.5,8-4.8,11.7-7.6
		c10-7.6,16.9-16.7,15.5-30.4c-0.8-7.6-0.1-15.3,0-23c0-2.3,0-4.7,0.4-7c1-5.7,4.8-7.6,9.2-4c3.5,2.9,7,6.6,8.6,10.7
		c3.6,8.9,6.5,18.1,8.9,27.4c4.3,16.6,5.2,34.2,14.3,49.6c1.3,2.3,1.3,5.9,0.7,8.6c-1.7,7.8-3.8,15.5-6.1,23.1
		c-2.2,7.3-5,14.5-7.2,21.8c-2.5,8.2-2.3,16.1,1.8,24.1c10.8,21.1,23.5,41,38.8,59.1c17.7,21.1,38.2,39,63.2,51.1
		c13,6.3,26.6,10.5,41.1,11.2c27.3,1.3,50.8-8.7,72.3-24.4c9.9-7.2,17.7-16.3,21.3-28.2c4.1-13.3,7.6-26.8,11.3-40.2
		c4-14.4,7.6-28.9,12.1-43.1c2.4-7.5,4.4-7.9,12.1-5.4c1.9,0.6,3.7,1.5,5.5,2.2c20.7,8.6,42.3,14.4,64.4,17.1
		c29.6,3.6,59.1,1,88.4-4.6c2.8-0.5,5.5-2.2,8.2-3.4c1.1-0.1,2.2-0.1,3.3-0.2c8.6,0.3,17.2,0.9,25.8,0.7
		c15.6-0.3,27.7,5.9,36.9,18.2c5.2,6.9,10,14.1,14.9,21.2c12,17.3,28.7,25.9,49.5,27.9c34.9,3.3,68-5.2,100.9-14.7
		c16.4-4.7,17.2-6.9,15.5-24.2c-0.1-0.6-0.4-1.2-0.7-1.9c0.1-1.1,0.1-2.2,0.2-3.3c1.3-4,3-8,3.9-12.2c1.7-7.8,2.7-15.7,4.4-23.5
		c4.9-22.6,15.9-41.5,35.3-54.8c5.3-3.6,7.5-8.1,6.7-14.4c-1.7-13.9-2.3-27.9-5.1-41.5c-3.5-17.2-3.1-34.5-2.6-51.7
		c0.3-11.1,3.7-21.6,8.8-31.4c4.1-8,10.2-12.8,20-11.8c8.9,0.9,17.9,1.4,26.9,1.5c21.5,0.4,42.1,5.5,62.5,11.6
		c19.7,5.9,19.6,6.3,34.2-8.5c32.8-33.2,66-65.9,102.8-94.6c9.4-7.4,19.3-14.3,29.4-20.7c10.1-6.4,17.8-2.6,18.7,9.1
		c0.7,9.2,0.3,18.6,0.3,27.9c0,9-0.2,17.9-0.4,26.9c-0.1,3.2-0.2,6.4-0.2,9.6c-1.4,5.4-2.9,10.8-4.2,16.2
		c-1.3,5.4-1.6,11.3-3.7,16.3c-3.9,9.1-8,18.3-13.6,26.4c-11.4,16.5-14.7,35.2-16.5,54.4c-0.6,6.8,0.4,13.8,0.6,20.7
		c0,1.1-0.1,2.2-0.1,3.4c-0.9,1.7-2.2,3.3-2.6,5.2c-2,8-6.8,11.8-15.3,12.3c-6,0.4-11.9,2.7-17.9,4.2c-1.1,0.1-2.2,0.1-3.3,0.2
		c-12-3.3-23.3,0.8-34,4.6c-36.1,12.7-68.9,31.7-98,56.7c-12.7,10.9-23.7,23.3-31.5,38.4c-5.5,10.7-8,21.9-5.9,33.8
		c2.5,13.9,14.2,23.3,29.7,25.2c8.6,1,17.1,2.4,25.5,4.5c14.2,3.7,18.9,10.6,19.4,25c0.4,11.5-1.6,22.5-4.5,33.5
		c-2.1,7.9-5.9,13.7-13.1,17.9c-16.2,9.4-33.6,15.9-51.3,21.8c-25.5,8.5-51.3,16.3-76.7,25.3c-27.5,9.8-51.8,24.7-68.5,49.4
		c-8,11.8-15.2,24.2-21.7,36.9c-13.5,26.6-22.9,54.7-26,84.4c-3,28.6,1.8,56.4,13.9,82.7c11,23.8,26.3,44.7,42.8,64.8
		c17.5,21.4,35.8,42.1,53.3,63.5c14.8,18.1,27.5,37.5,37.3,58.9c3.6,7.8,3.3,14.2-1.9,21.3c-6.6,9.1-14.8,16.4-24.6,21.5
		c-11.5,6-23.6,10.8-35.2,16.5c-11.3,5.5-22.5,11.4-33.6,17.4c-4.9,2.7-7.4,7-7.5,13.1c-0.5,18.9,4.4,36.1,13.8,52.4
		c3.5,6,8.5,9.2,15.2,9.8c5.3,0.5,10.7,0.1,15.9,0.9c13.4,2.1,26.8,4.6,40.2,7.1c3.9,0.7,6.5,3,7,7.3c2,15.2,4,30.4,1.4,45.7
		c-0.9,5.5-0.5,11.2-0.7,16.8c-0.1,1.2-0.1,2.4-0.2,3.6c-2.2,6.9-4.2,13.9-6.8,20.6c-7.1,18.6-13.6,37.5-21.8,55.6
		c-18.7,41.7-34.5,84.1-38.6,130.2c-0.7,7.9-2.5,9.2-10.7,10.7c-9.8,1.8-19.6,3.6-29.4,5.4c-5.2,0.9-9.3,3.2-12.3,7.6
		c-18,25.3-22.6,53.3-17.1,83.5c1,5.5,1.3,11.2,1.9,16.7c-1.4,0.1-2.8,0.3-4.1,0.4c-4.7-4.4-10.2-5.7-16.4-3.8c-1,0-2,0-3,0
		c-12.6-0.3-18.7,4.9-21.2,18.6c-3.7,20-5.9,39.9-1.3,60.4c5.9,26.5,17.5,48.7,39.9,64.5c4.9,3.4,6.8,7.4,7,13.3
		c1.1,28.6,2.7,57.2,3.7,85.9c0.4,11.2,2.8,21.8,6.5,32.1c9.7,27.5,27.4,49.5,49.5,67.8c42.8,35.4,91.9,53.7,147.8,54.7
		c33.5,0.6,65.7-4.1,96.4-17.5c27.7-12.1,52.9-27.9,72.8-51.4c20.7-24.5,35.1-52.6,45.9-82.5c8.9-24.7,16.4-49.9,23.5-75.1
		c5.7-20.2,9.7-40.8,14.5-61.2c2.7-11.3,5.3-22.7,8.2-33.9c0.4-1.6,1.9-3,3.5-5.3c1.3,2.3,2.5,3.6,2.7,5.1
		c1.6,11.5,2.8,23.1,4.6,34.6c1.8,11.5,2.8,23.2,6.3,34.2c6.7,21.2,15.1,41.9,22.5,62.9c10.9,31.2,22.8,61.9,41.9,89.2
		c7.6,10.9,15.6,21.6,22.9,32.7C3771.8,2637.6,3774.7,2643.9,3778,2650z M578.7,2286.1c-1.3,4.4-3.5,8.8-3.8,13.2
		c-2.6,35.9-5.7,71.7-5.9,107.7c-0.3,46.3,1.5,92.5,5.7,138.7c0.5,5.5,2.6,10.9,4,16.3c0.1,1.2,0.2,2.4,0.3,3.6
		c0.1,6.3-0.6,12.7,0.3,18.8c3.2,20.3,6.7,40.6,10.7,60.8c4.4,22.5,8.3,45.1,14.2,67.2c8.3,31.1,17.8,62,27.5,92.7
		c13.2,42.3,30.3,83.1,49,123.2c33.6,72,73.4,140.4,121.2,204c22.8,30.3,46.5,60.1,71.6,88.5c45.9,52.1,96.3,99.6,150.8,142.7
		c45.5,36,93.2,68.8,143.4,98c57.9,33.8,118.1,62.9,181.1,85.8c31.8,11.6,64.2,21.7,96.5,31.8c16.1,5.1,32.7,8.9,49.2,12.7
		c18.7,4.3,37.6,8.2,56.5,12c9.8,2,19.6,3.7,29.4,5.3c14.4,2.3,28.9,4.5,43.3,6.5c2.9,0.4,5.9-0.4,8.9-0.6c1.2,0.1,2.4,0.2,3.6,0.2
		c4.4,1.3,8.8,3.2,13.3,3.7c17.2,1.7,34.4,3.8,51.6,4.2c37.2,1,74.4,1.2,111.7,1.4c13.6,0,27.3-0.7,40.8-1.8
		c24.8-2.1,49.6-4.5,74.3-7.2c5.5-0.6,10.7-2.9,16.1-4.3c1.2-0.1,2.4-0.1,3.6-0.2c8.2,1.5,16.1,1.2,23.2-3.9
		c1.1-0.1,2.2-0.2,3.3-0.3c4.6-0.1,9.3,0.6,13.7-0.3c16.6-3.3,33.1-6.9,49.6-10.7c19.7-4.5,39.5-8.9,59.1-14.3
		c36.5-10.1,72.4-22.1,107.9-35.5c37.7-14.2,74.7-30.3,110.6-48.4c50.3-25.3,99.1-53.3,144.9-86.3c28.4-20.4,56.6-41.1,83.7-63.2
		c40.4-32.8,78-68.6,113.5-106.7c42.1-45.2,80.6-93.2,115.5-144.1c41.8-61.2,77.5-125.8,107.2-193.7
		c23.9-54.6,43.8-110.6,59.1-168.3c10-37.7,19.1-75.4,24.8-114c1.5-10.2,3.3-20.3,4.6-30.6c2.6-21.1,5-42.2,7.4-63.3
		c0.7-6,1.3-11.9,1.6-17.9c0.9-25.3,1.7-50.6,2.5-75.9c0-1.3-0.6-2.5-1-3.8c0-4.7,0-9.3,0-14c0.4-1.9,1-3.9,1.1-5.8
		c1.4-37.1-2.7-73.9-5.3-110.7c-0.8-11.9-2.7-23.8-4.5-35.6c-2-13.1-4.3-26.2-6.6-39.3c-3.1-17.7-5.5-35.5-9.7-53
		c-7.2-30.1-15.3-59.9-23.5-89.7c-11.6-42.4-27.1-83.5-44.2-124c-21.5-51-46.6-100.2-75-147.7c-45.7-76.3-99-146.9-160.3-211.4
		c-46.9-49.3-97.4-94.7-152-135.6c-49.9-37.4-102.4-70.8-157.5-100.1c-39.1-20.8-79.3-39.4-120.4-55.9
		c-36.5-14.6-73.6-27.4-111.3-38.1c-23.9-6.8-48.2-12.5-72.5-17.9c-26-5.8-52.1-11.1-78.3-15.6c-20.6-3.5-41.5-6.1-62.3-8.1
		c-23.9-2.2-47.8-3.8-71.8-4.7c-23.6-0.8-47.3-0.5-71-0.4c-24.7,0.1-49.3,0-73.8,3.5c-15.5,2.2-31.1,3-46.7,4.6
		c-14.9,1.6-29.9,2.7-44.6,5.3c-25.9,4.6-51.7,9.4-77.3,15.5c-31.3,7.4-62.4,15.9-93.4,24.6c-37.9,10.6-74.5,24.8-110.7,39.9
		c-58.8,24.5-115.2,53.8-169.3,87.4c-76.4,47.5-146.7,102.9-210.8,166c-39.4,38.9-76,80.4-109.7,124.3
		c-43.8,56.9-82.2,117.2-115.2,181c-21.4,41.4-40.7,83.9-56.8,127.6c-9.5,25.9-18,52.2-26,78.5c-6.5,21.3-12.2,42.9-17.5,64.5
		c-4.5,18.4-8,37-11.8,55.5c-2,9.8-3.8,19.6-5.4,29.4c-2.3,14.4-4.5,28.9-6.4,43.4c-0.4,2.9,0.4,5.9,0.7,8.9
		C578.9,2283.7,578.8,2284.9,578.7,2286.1z"/>
	<path class="st1" d="M2456,4078c-0.8-1-1.4-2.4-2.4-3c-22-11-44.1-21.9-66.2-32.7c-3-1.5-6-2.8-9.2-4c-8.8-3.2-17.5-5.8-27.2-3.8
		c-7.1,1.5-14.6,1.2-21.9,2.1c-8.1,1-13.5-1.9-18.4-8.7c-14.9-20.5-30.1-40.7-46-60.4c-25.5-31.3-53.2-60.5-84.8-85.9
		c-30.3-24.5-63.2-44.3-100.6-55.9c-19-5.9-38.5-7.3-58.2-7.3c-36.4,0-69.2,11.6-100.2,29.8c-4.3,2.5-8.5,5.2-12.8,7.7
		c-26.5,15.6-45.1,38-57.3,66c-8,18.3-15.9,36.7-25,54.4c-6.3,12.4-13.7,24.4-22.2,35.4c-15.4,19.9-36.1,31.1-61.3,33.7
		c-11.2,1.1-22.6,3.5-33.7,2.6c-26.4-2-51.6-9.3-75.3-21.5c-25.6-13.2-48.3-30.7-71.8-47c-20.2-14-40.4-28.2-61.4-41.1
		c-22.9-14-48.3-19.8-74.8-14.2c-14.8,3.1-29.6,8.4-43.1,15.2c-30.6,15.5-60.2,32.7-90.4,48.9c-23.8,12.7-47.5,25.4-71.8,37.1
		c-19.2,9.3-39.7,15.1-61,18.3c-12,1.8-23.3-0.3-34.4-3.9c-7.8-2.5-13.1-9-17.4-15.9c-7.2-11.5-10.9-24.3-12.1-37.7
		c-2-22.2-3.4-44.5-4.6-66.7c-1.9-34-14.7-63-38.3-87.6c-25.7-26.9-54.4-50-85.3-70.6c-46-30.6-95.7-53.5-147.9-71.4
		c-33.7-11.6-67.8-21.3-102.6-29c-29.5-6.5-59-13.3-88.6-19.2c-25.4-5.1-51.1-8.8-76.6-13.9c-21.8-4.4-43.5-9.5-65.1-14.9
		c-21.9-5.5-43.8-11.3-65.3-18c-22.5-7-44.7-15.3-67-23c-1.6-0.5-3.1-1.2-4.6-2c-6-3.4-6.1-9.8,0.1-13.3c2.8-1.6,6.1-3.2,9.3-3.4
		c7.2-0.5,14.6-0.1,21.8-0.1c-4.1,1.3-8.1,2.8-12.2,3.8c-2.9,0.7-6,0.6-8.9,1c-3.6,0.4-8,0.1-8.7,4.9c-0.6,4.4,3.6,5,6.6,6.1
		c22.9,7.9,45.7,16.2,68.8,23.6c19,6.1,38.2,11.4,57.5,16.5c14.4,3.8,29.1,6.6,43.7,9.7c18.2,3.8,36.3,7.6,54.5,11.1
		c17.3,3.3,34.7,5.9,52,9.2c15.7,3,31.3,6.2,46.9,9.7c15.6,3.4,31.1,7,46.5,11c19.6,5.1,39,10.8,58.5,15.8
		c25.5,6.6,50,16.2,74.4,25.9c45.1,17.8,87.4,40.9,126.8,69.2c29.2,21.1,56.7,44.1,79.4,72.6c17.1,21.4,25.7,45.4,27.2,72.5
		c1.1,20.9,1.9,42,4.5,62.7c2,16.4,4.3,33.1,15,47c6.3,8.3,14,12.4,24.4,13.4c26.7,2.8,51.4-4.4,75.6-14.3
		c29.7-12.2,57-28.8,85.1-44c29-15.7,57.7-31.9,87.1-46.6c13-6.5,27.1-11.2,41.3-14.4c12.2-2.7,25-2.1,37.6,0.8
		c33.8,7.8,60.7,28.2,88.1,47.6c27.4,19.4,53.8,40.4,83.9,55.7c32.9,16.7,67.6,23.7,104.5,18.7c35-4.7,59.2-24.3,75-54.9
		c11.1-21.6,21.8-43.4,31.2-65.8c13.6-32.4,36.2-56,66.2-73.5c20.8-12.2,42.3-22.8,65.8-28.3c26-6.1,52.2-7.7,79-2.6
		c26.9,5.1,51.7,14.6,75.3,27.8c24.6,13.7,46.8,30.6,67.6,49.4c41.5,37.4,76.8,80.3,109.1,125.7c1.5,2.2,3.3,4.2,4.8,6.4
		c3.4,5,8,5.9,13.9,5.4c11.6-1,23.3-1.9,34.9-1.1c7.4,0.5,14.9,3.4,21.7,6.6c16.6,7.8,32.8,16.4,49.1,24.7
		c19.2,9.8,38.9,17,61.1,14.7c4.6-0.5,9.4-0.4,14,0c8.8,0.7,14.6-3.5,19.1-10.4c7.5-11.4,10.1-24.4,11.8-37.7
		c2.4-19.8,3.1-39.8,8.7-59.1c9-31,19.8-61.3,33.9-90.4c13.4-27.6,28.6-54.2,46.1-79.3c19.8-28.3,43.6-52.8,71.2-73.6
		c39.9-30.1,83.5-53.3,130.2-70.8c20.5-7.7,41.1-15.3,62-22.2c10.3-3.4,21.3-4.9,32-7.2c16.8-3.7,33.6-7.7,50.5-11
		c13.2-2.5,25.6-7.1,37.6-13c5-2.5,9.8-5.7,14.2-9.2c5.4-4.1,9.5-9.1,10.4-16.4c0.4-3.1,2.7-5.9,4.1-8.8c2,11.7-2.3,20.9-11.2,28.1
		c-12.1,9.8-26.2,16-41.1,19.7c-26.5,6.4-53.4,10.8-79.8,17.7c-22.8,6-45.3,13.3-67.3,21.6c-21.7,8.2-43.3,17.2-64,27.8
		c-30.8,15.7-60.2,34-87,56.2c-43.2,35.8-73.4,81.2-98.7,130.4c-16.1,31.4-28.6,64.3-38.2,98.3c-4.2,15.1-6.6,30.4-8.2,46
		c-1.5,14.8-4.9,29.4-8.4,43.9c-1.2,5-4.9,9.3-7.4,14c-1.3,2.3-2.6,4.5-3.9,6.7C2502.7,4078,2479.3,4078,2456,4078z"/>
	<path class="st1" d="M386.1,3552.9c25.9-8.8,47.1-25.8,69.4-40.8c3.9-2.7,7.4-7.1,9.4-11.4c9.2-19.9,18.3-39.9,26.5-60.2
		c8.3-20.4,8.6-42.2,8.4-63.9c-0.6-53.8-19.2-102.2-44.6-148.5c-20.6-37.6-46-71.8-77.2-101.3c-11.1-10.5-23.5-19.5-35.9-28.5
		c-10.1-7.3-22-10.5-34.6-11.7c-20.9-2-41.7-4.7-62.5-7.1c-14.4-1.6-26.7-8.2-38-16.6c-8.5-6.3-16.9-13.1-24.6-20.4
		c-57.2-54.1-103-116.7-139.3-186.4c-11.1-21.3-20.7-43.2-27.5-66.3c-0.9-2.9-1.6-6-5.6-5.7c0-23.3,0-46.7,0-70
		c15.1,2.1,30.3,4.2,45.4,6.3c24.9,3.4,49.7,3.3,74.7-0.1c19.8-2.7,39.2-6.7,58.2-13.1c43.1-14.6,79.1-39.4,108.2-74.1
		c22.8-27.1,38.5-58,49-91.9c12.1-39.2,17.2-79.4,15.4-120.2c-0.9-20.6-4.2-41-6.6-61.5c-4.4-37.1-19.4-71-32.1-105.6
		c-7.7-21.2-14.4-42.8-21.5-64.3c-3.5-10.7,0.2-20.4,4.4-29.9c3.6-8.2,7.9-16.1,11.5-24.4c11.4-26.3,3.2-52.1-17.4-69.1
		c-15.3-12.6-33.4-20.5-51-29.1c-13.7-6.7-27.6-13.4-40.6-21.3c-14.4-8.7-26.5-20.1-33.9-35.7c-13.3-27.8-7-52.4,12.1-74.8
		c12.4-14.6,27.6-25.9,42.8-37.5c19.6-14.9,39.4-29.6,58.4-45.3c21.3-17.6,38.3-38.9,47.4-65.6c2.6-7.5,4.3-15.4,5.9-23.2
		c2.2-10.4-0.7-19.4-7.1-28c-16.5-22-38.1-36.9-62.8-47.9c-26.2-11.7-53.7-15.1-82-12.5c-8.5,0.8-17.1,3-25.2,5.8
		c-14.2,4.7-23.7,1.7-30.8-11.3c-1.2-2.3-1.8-4.9-2.7-7.3c1.7,1.5,3.5,2.8,5,4.5c2.7,2.9,5.1,6.2,8,8.8c4.5,4.1,9.4,5.2,15.6,2.8
		c16.3-6.2,33.4-9.2,50.9-8.4c48.1,2.2,89.1,20.4,121.6,56.4c4.4,4.9,7.8,10.8,11.4,16.4c2.7,4.3,3,9.1,2.5,14.4
		c-3.5,37.2-21.4,66.4-48.1,91.5c-22.2,20.9-47.4,37.7-71.3,56.3c-12.8,10-24.8,21.2-36.4,32.7c-15.6,15.5-20.4,35-16.5,56.1
		c2.8,15,11,27.7,22.8,37.8c12,10.3,25.8,17.6,39.8,24.6c17.2,8.7,34.7,17,51.6,26.3c7.2,3.9,13.8,9.4,19.7,15.1
		c19.7,19,26.2,44.5,12.9,72.1c-3.3,6.9-6.5,13.9-10,20.7c-6.2,12.1-5.8,24.9-2.2,37c6,20,13.6,39.6,20.5,59.3
		c9,25.7,18.6,51.3,26.6,77.3c3.6,11.6,3.4,24.3,6,36.3c6.3,29.1,2.8,58.4,4,87.7c0.7,16.5-2.6,32.5-5.3,48.5
		c-5.1,29.3-14.9,57.4-28.9,83.7c-27.9,52.2-68.3,91.3-123.6,114.3c-22,9.2-44.7,15-68,19.1c-9.1,1.6-18.6,1.7-27.9,2
		c-27.7,0.8-55.3,1-82.6-4.9c-4.1-0.9-8.3-1-13.3-1.5c-0.4,4.1-0.9,7-0.9,9.9c-0.1,6,0.5,12-0.1,18c-1.9,19.2,4,36.8,10.4,54.3
		c23.6,64.6,60,121.7,103,174.7c16.1,19.9,33.5,38.9,51.5,57.1c14,14.1,28.8,27.9,47.4,36.3c8.5,3.8,17.4,5.8,26.7,7.3
		c23.3,3.7,47.2,2.3,70.3,8.2c14.2,3.6,26.1,11.8,37.2,20.8c34.5,28,62.5,61.7,86.2,99.1c18.5,29.1,33.1,59.9,44,92.6
		c8.5,25.7,14.1,52.2,15,79.2c1.1,33.4-6.7,65.4-21.8,95.4c-4.3,8.6-8.2,17.5-12.3,26.2c-4.6,9.5-11.2,17.2-20.3,22.9
		c-14.1,8.8-28.1,17.9-42.3,26.6C401.7,3551.8,394.8,3556.5,386.1,3552.9z"/>
	<path class="st2" d="M3196,18c0.7,3.4,1.7,6.8,2.2,10.3c0.6,4.7,0.9,9.4,1.3,14.1c-1.2-2.7-2.5-5.3-3.6-8c-1.5-3.5-0.4-9.5-5.3-9.5
		c-2.9,0-6.3,4.1-8.7,7c-7.3,8.6-14.3,17.6-21.4,26.4c-23.2,29.2-46.6,58.3-72.9,84.9c-27.5,27.8-56.7,53.4-92.1,71
		c-19,9.4-39.2,14.8-60.2,16.8c-14.4,1.4-28.7-1.4-42.5-5c-24.4-6.4-48.3-14.6-72.8-21c-11.8-3.1-24.2-3.9-36.4-5.7
		c-6.1-0.9-10.7,1.7-15.2,5.8c-21.1,18.9-41.8,38.2-63.7,56.1c-28.7,23.6-60.1,43-94.8,56.5c-25.5,10-51.5,17.7-79.6,15.3
		c-21.7-1.8-41.4-9.7-60.3-19.5c-20.1-10.4-39.8-21.6-59.8-32.1c-5.5-2.9-11.7-4.9-17.8-6.5c-8.8-2.3-17.2-0.5-24.9,4.3
		c-17.4,10.8-32.6,24.2-45.8,39.8c-21.5,25.3-38,53.8-54,82.6c-10.7,19.2-21.6,38.3-32.7,57.2c-23.7,40.6-56.7,71.8-97,95.8
		c-35.1,20.9-72.2,37.4-111.8,47.2c-19.8,4.9-40.6,7.6-61.4,3.1c-11.7-2.5-23.7-3.1-35.4-5.4c-16.3-3.2-32.4-7.1-48.6-10.9
		c-21-4.9-42-10.2-63.1-15c-9.1-2.1-18.4-3-27.5-4.8c-3.5-0.7-6.8-2.4-10.2-3.7c4.6-0.2,9.3-1.2,13.8-0.5c10.1,1.6,20.1,4,30.2,6.3
		c12.9,3,25.8,6.1,38.7,9.2c14.2,3.4,28.4,6.9,42.6,10.3c34.8,8.5,69.9,14.5,105.8,10c11.8-1.5,23.5-4.8,34.8-8.5
		c36.5-11.9,71.3-27.7,103.4-49c35.9-23.9,64.4-54.6,86-91.8c18.7-32.2,36.4-65.1,55.8-96.9c18.2-29.7,40.4-56.1,69.9-75.8
		c13.9-9.3,28.4-9.8,42.8-4.1c14.1,5.6,27.5,13.3,40.9,20.7c19.8,10.9,39.2,22.8,61.2,28.8c18.6,5.1,37,8,56.9,3.8
		c47-9.9,87.9-31.5,126.2-59.5c27-19.7,51.8-41.9,75.6-65.2c7.1-7,14.3-8.7,24.2-7.7c29.5,2.9,56.9,13,84.9,21.4
		c22.4,6.8,45.1,11.8,68.7,9.3c16.3-1.8,31.9-6.5,46.7-13.4c25.9-12.1,48.5-28.8,69.9-47.7c37.9-33.5,69.3-72.7,100.8-112
		c7.1-8.8,14.2-17.7,21.1-26.6c2-2.6,3.4-5.6,5.1-8.4C3189.3,18,3192.7,18,3196,18z"/>
	<path class="st2" d="M3170.5,2303c-0.4,0.5-0.8,1.3-1.3,1.4c-13.9,3.9-16,15.6-17.6,27.2c-2.2,15.9-3.1,32,0,47.8
		c4.9,25.1,15,47.8,37,62.8c7.1,4.8,10.6,10.8,11,18.9c0.7,15.6,1.7,31.3,1.5,46.9c-0.2,19,0.2,38,4.5,56.6c2,9,5.5,17.8,9.5,26.1
		c10.3,21.8,26.4,39.2,44.8,54.3c26.9,22,57.5,36.8,91.5,44.7c22.5,5.2,45.2,8.7,68.2,7c54.8-4,104-21.8,143.2-61.9
		c15-15.4,26.1-33.5,35.6-52.7c13.4-27.2,23.6-55.7,32.1-84.8c3.8-13,6.7-26.3,9.9-39.5c4.8-20,9.6-40,14.3-60
		c2.1-8.7,3.9-17.5,6.2-26.2c0.6-2.2,2.8-4,4.3-6c2,1.5,5.2,2.7,5.8,4.6c2,6.6,3.4,13.4,4.5,20.3c3,18.6,2.6,37.9,8.8,55.9
		c7.7,22.3,16.4,44.3,24.1,66.6c7.1,20.5,14.6,40.7,25,59.7c5.8,10.5,12.5,20.4,19.1,30.4c8.3,12.5,16.9,24.7,25.3,37
		c0,3.3,0,6.7,0,10c-3.3-6.1-6.2-12.4-10-18.1c-7.4-11.1-15.3-21.8-22.9-32.7c-19.1-27.3-31-58-41.9-89.2
		c-7.4-21-15.8-41.7-22.5-62.9c-3.5-11-4.5-22.7-6.3-34.2c-1.8-11.5-3-23.1-4.6-34.6c-0.2-1.4-1.4-2.7-2.7-5.1
		c-1.6,2.3-3.1,3.7-3.5,5.3c-2.9,11.3-5.5,22.6-8.2,33.9c-4.8,20.4-8.9,41-14.5,61.2c-7.1,25.3-14.6,50.5-23.5,75.1
		c-10.8,29.9-25.1,57.9-45.9,82.5c-19.9,23.5-45,39.3-72.8,51.4c-30.7,13.4-62.9,18.1-96.4,17.5c-55.8-1-105-19.3-147.8-54.7
		c-22.1-18.3-39.8-40.3-49.5-67.8c-3.6-10.3-6.1-21-6.5-32.1c-1-28.6-2.6-57.2-3.7-85.9c-0.2-5.8-2.1-9.8-7-13.3
		c-22.5-15.7-34-38-39.9-64.5c-4.6-20.5-2.4-40.4,1.3-60.4C3151.8,2307.9,3157.9,2302.7,3170.5,2303z"/>
	<path class="st1" d="M3778,2676c-4.3,7.8-8.9,15.4-12.9,23.4c-2.9,5.8-7.6,9.2-13.4,11.1c-49.2,16.3-91.9,43.6-131.2,76.7
		c-28,23.6-55.5,47.9-82.9,72.2c-29.5,26.2-61.4,48.9-94.9,69.6c-19.5,12.1-38.3,25.4-56.3,39.6c-22,17.4-36.3,40.5-44.7,67.2
		c-6.2,19.6-12.7,39.1-19.2,58.6c-10.2,30.4-30.9,51.5-58.7,66.4c-24.9,13.4-51.7,20.7-79.3,26c-24.5,4.7-49.2,8.5-71.9,19.6
		c-35.2,17.2-58.5,45.6-74.4,80.5c-7.3,16.1-10.5,33.4-13.6,50.8c-4.7,26.2-3.8,52.5-2.7,78.7c0.6,13.8,4,27.6,6.4,41.3
		c3.1,17.3,6.6,34.6,9.9,51.9c1.4,7.5,2.7,15.1,3.5,22.7c0.4,3.9-0.3,7.9-0.5,11.9c-1.6-5.3-4.2-10.6-4.5-16
		c-1.2-20-6.1-39.4-10.1-58.9c-3.4-16.6-7.8-33-8.2-50.2c-0.3-14.3-2.3-28.6-1.8-42.8c1.2-32.8,5.6-65.2,19.8-95.1
		c17.2-36.3,42.8-65.1,80.6-81c12.5-5.3,25.9-8.6,39.1-11.8c24.1-5.9,49-8.7,72.7-16.7c23.8-8.1,46-19.3,64.3-37.1
		c15-14.6,23.5-32.9,29.8-52.4c6.6-20.2,13.1-40.5,20.3-60.5c10.2-28.3,29.5-49.8,53.6-66.8c22.5-15.9,46.3-30.2,69.4-45.3
		c24.6-16.1,47.4-34.5,69.5-53.8c30.4-26.5,60.3-53.5,91.4-79.1c33.3-27.4,69.6-50.2,110.3-65.6c0.6-0.2,1.2-0.6,1.9-0.7
		c22.1-3,27.9-21,34.8-38c1.2-2.9,2.8-5.7,4.2-8.6C3778,2668,3778,2672,3778,2676z"/>
	<path class="st2" d="M2978.7,2416c-0.6-2.2-1.7-4.4-1.8-6.6c-0.9-16.3-2.2-32.6-2.4-48.9c-0.5-29.4-4-58.5-7.9-87.5
		c-3.2-23.4-6.4-46.8-10.4-70.1c-2.8-16-6.8-31.8-10.6-47.6c-4.4-18.4-8.7-36.8-13.7-55.1c-4-14.8-8.3-29.5-13.3-43.9
		c-9.3-26.7-18.4-53.5-28.9-79.7c-17.9-44.9-39.2-88.2-62.4-130.6c-22.8-41.5-48.4-81.3-76-119.8c-23.7-33-49.2-64.7-76.2-95.1
		c-27.2-30.7-55.6-60.2-86-87.8c-33.6-30.5-68.4-59.3-105.1-86.1c-42.3-30.9-86.4-58.9-132.4-84c-45.9-25.1-93.3-47-142-66.1
		c-35-13.8-70.8-25.2-106.8-35.9c-18.4-5.5-37.3-9.4-56.1-13.9c-15.8-3.7-31.7-7.3-47.6-10.7c-8.4-1.8-17-3.3-25.5-4.5
		c-12.8-1.9-25.7-3.4-38.6-5c-19.2-2.4-38.3-4.9-57.5-7c-9.6-1-19.3-1.2-28.9-1.7c-34.3-1.7-68.5-4.7-102.9-2.6
		c-31.9,1.9-63.8,4.5-95.6,7c-15.6,1.3-31.2,2.6-46.6,5c-19.7,3-39.2,7.1-58.8,10.7c-9.8,1.8-19.6,3.4-29.4,5.4
		c-13,2.8-26,5.4-38.8,9c-22.4,6.2-44.7,12.9-67,19.7c-48.5,14.7-95.2,33.8-141.2,54.9c-57.3,26.4-112,57.3-164.3,92.5
		c-74.7,50.2-143.1,107.8-204.8,173.4c-40.7,43.2-78.1,89.1-112,138c-31.1,45-59.5,91.6-84.4,140.3
		c-25.6,50.1-47.5,101.9-65.8,155.2c-11.1,32.4-21.3,65-28.7,98.4c-6,26.9-11.9,53.9-17.2,81c-3.4,17.6-5.3,35.5-8.2,53.2
		c-0.7,4.5-2.8,8.7-4.3,13c-0.3-3-1.1-6-0.7-8.9c2-14.5,4.1-28.9,6.4-43.4c1.6-9.8,3.4-19.6,5.4-29.4c3.8-18.5,7.3-37.2,11.8-55.5
		c5.3-21.6,11-43.2,17.5-64.5c8.1-26.4,16.5-52.7,26-78.5c16.1-43.8,35.4-86.2,56.8-127.6c33-63.8,71.4-124,115.2-181
		c33.8-43.9,70.3-85.4,109.7-124.3c64.1-63.1,134.4-118.5,210.8-166c54.1-33.7,110.5-62.9,169.3-87.4
		c36.2-15.1,72.9-29.3,110.7-39.9c31-8.7,62.1-17.1,93.4-24.6c25.5-6.1,51.4-10.9,77.3-15.5c14.7-2.6,29.7-3.8,44.6-5.3
		c15.5-1.6,31.2-2.4,46.7-4.6c24.5-3.5,49.2-3.4,73.8-3.5c23.7-0.1,47.3-0.4,71,0.4c23.9,0.8,47.9,2.4,71.8,4.7
		c20.8,1.9,41.7,4.5,62.3,8.1c26.2,4.5,52.3,9.8,78.3,15.6c24.3,5.4,48.6,11.1,72.5,17.9c37.7,10.8,74.9,23.5,111.3,38.1
		c41.1,16.5,81.3,35.1,120.4,55.9c55.1,29.3,107.6,62.7,157.5,100.1c54.5,40.9,105,86.2,152,135.6c61.3,64.5,114.6,135,160.3,211.4
		c28.5,47.5,53.5,96.7,75,147.7c17.1,40.5,32.6,81.6,44.2,124c8.1,29.8,16.3,59.7,23.5,89.7c4.2,17.4,6.6,35.3,9.7,53
		c2.3,13.1,4.6,26.2,6.6,39.3c1.8,11.8,3.7,23.7,4.5,35.6c2.6,36.9,6.7,73.7,5.3,110.7C2979.7,2412.1,2979.1,2414.1,2978.7,2416z"/>
	<path class="st2" d="M725.5,869c4.4-1.4,8.6-3.3,13.1-4c4.6-0.8,9.4-1,14-0.5c12.8,1.4,22.5-4.6,31.2-12.8
		c15-14.2,25.8-31.4,34.8-49.7c11.6-23.6,22.8-47.4,33-71.6c11.2-26.5,25-51.5,40.2-75.8c17.3-27.7,35.1-55,53.8-81.8
		c25.2-36.1,53-70.2,84.3-101.2c6.1-6.1,11.5-7.5,20.3-5c24.4,7,37.3,24.6,45.9,46.4c8,20.2,11.5,41.5,13.8,63.2
		c1.6,15.2,4.4,30.2,6.8,45.3c1.6,10.2,3,20.4,5.1,30.4c2.7,12.7,6.8,25,14.2,35.9c6.6,9.8,15.4,14.9,27.6,15.2
		c16.6,0.4,32.4-3,48.1-7.6c15-4.4,29.8-9.5,44.9-13.5c6-1.6,12.5-1.4,18.8-1.5c5,0,8.3,3,8.3,8.1c0.1,16.3,2.3,32.6-2.2,48.7
		c-2.2,8-4,16.1-5.6,24.2c-1.2,6.4-4.6,10.6-10.4,13.7c-25.3,13.2-48.2,29.7-68,50.3c-11.5,12-21.1,25.3-26.8,41.6
		c-5.3,14.9-2.3,28.1,3.6,41.4c7.1,16.1,19.9,27.5,33.3,38c31.9,24.9,68.2,41,107.1,52c25.7,7.3,51.7,8.9,78.1,8.5
		c25.6-0.4,47.2-9.7,66.4-26c25.5-21.6,45.3-47.8,62.1-76.3c24.8-42,44.1-86.6,61.1-132.1c9-24,17.7-48,25.9-72.2
		c5.5-16,9.8-32.5,14.9-48.7c13.8-44.4,43.5-72.1,88.3-84c7.4-2,14.6-4.8,22.4-2.3c-4,1.4-8,3.4-12.1,4.2
		c-44.6,8.7-76.7,32.6-92.1,76.3c-6.7,19.1-11.5,38.9-18,58.1c-7.4,22.1-15.6,43.9-23.7,65.7c-14.4,38.4-30.3,76-49.5,112.3
		c-17,32.2-36.5,62.7-62.3,88.8c-14.9,15.1-30.9,28.7-51.6,34.8c-9.8,2.9-20,5.2-30.2,6c-24.4,1.9-48.4-1.2-72.2-7
		c-38.9-9.5-75.1-24.8-108-47.8c-13.7-9.6-26.4-20.3-36.3-34c-16-22.3-18.6-45.6-5.3-70.3c9.9-18.2,24.1-32.6,39.4-46
		c14.8-13,31-24.2,48.6-33c5.9-3,9.7-7.1,11.4-13c5.9-20.9,10.1-42.1,8.2-64c-0.1-0.7-0.1-1.3-0.2-2c-1.4-10.1-4.8-12.5-14.9-10.4
		c-5.2,1.1-10.3,2.6-15.5,4c-21.4,6.1-42.7,12.9-64.3,18c-9.5,2.2-19.9,2.1-29.7,1c-10.4-1.3-17.7-8.8-23.5-17.3
		c-8.6-12.6-13.4-26.9-16-41.7c-3.9-22.6-6.2-45.5-9.8-68.1c-3.8-23.9-6.5-48.2-16.6-70.7c-7.4-16.6-18-30.2-35.9-36.8
		c-11.8-4.4-16.1-3.9-24.8,5.3c-28.3,29.7-54.6,61.1-78.5,94.4c-28.1,39.3-54.8,79.6-77.2,122.4c-13.1,25-23.9,51.2-35.6,77
		c-10.9,24-21.8,48-38.6,68.5c-6.9,8.4-15.3,15.7-23.6,22.7c-5.9,5-13.3,7.2-21.4,7C744.7,869,735.1,869.1,725.5,869z"/>
	<path class="st2" d="M1974,3606.8c3-1.4,5.8-3.4,8.9-4c21.8-4.6,43.8-8.4,65.5-13.4c20.7-4.8,41.2-10.5,61.7-16.1
		c34.4-9.3,68.1-20.6,101-34.1c28.3-11.6,56.6-23.4,84.2-36.5c92.2-43.9,177-99.3,255.1-165c36.8-30.9,71.6-63.9,104.3-99
		c47.6-51,90.6-105.7,128.6-164.2c36.3-56,68.1-114.4,94.5-175.7c14.1-32.7,27.1-65.8,37.7-99.8c8.1-26,16.3-52,23.7-78.2
		c4-14.3,6.5-29.1,9.6-43.7c3.6-16.9,7.2-33.8,10.5-50.7c2-10.1,3.7-20.3,5-30.5c2.3-18.5,4.6-37,6-55.6
		c2.6-34.2,4.4-68.4,6.6-102.6c0.2-2.6,1.2-5.1,1.9-7.6c0.3,1.3,1,2.6,1,3.8c-0.8,25.3-1.6,50.6-2.5,75.9c-0.2,6-0.9,12-1.6,17.9
		c-2.4,21.1-4.8,42.2-7.4,63.3c-1.3,10.2-3,20.4-4.6,30.6c-5.7,38.6-14.8,76.3-24.8,114c-15.3,57.7-35.1,113.7-59.1,168.3
		c-29.8,67.9-65.4,132.5-107.2,193.7c-34.8,51-73.4,98.9-115.5,144.1c-35.5,38.1-73.1,73.9-113.5,106.7
		c-27.1,22-55.3,42.7-83.7,63.2c-45.8,32.9-94.6,60.9-144.9,86.3c-35.9,18.1-72.9,34.2-110.6,48.4c-35.5,13.4-71.4,25.3-107.9,35.5
		c-19.5,5.4-39.3,9.7-59.1,14.3c-16.5,3.8-33,7.4-49.6,10.7C1983.3,3607.3,1978.6,3606.7,1974,3606.8z"/>
	<path class="st2" d="M579,2565.5c1.5,4.3,3.6,8.5,4.3,12.9c2.8,17,4.9,34.1,7.8,51.1c2.8,16.7,5.9,33.4,9.6,49.9
		c4.7,20.7,9.8,41.3,15.6,61.8c6.6,23.3,13.3,46.6,21.3,69.4c9.5,27.3,19.4,54.6,31.1,81c14.8,33.4,30.8,66.4,47.7,98.8
		c24,46.1,52.1,89.8,82.6,131.9c40.5,56,85.4,108.2,134.9,156.4c44.4,43.3,91.9,82.9,142.4,119.1c50.2,35.9,103,67.4,158,95.3
		c45.1,22.9,91.6,42.7,139.4,59.2c23.8,8.2,47.7,16.6,72,23.2c32.1,8.6,64.6,15.7,97,22.8c19.8,4.3,39.8,7.6,59.7,11.1
		c5.5,1,11.4,0.4,16.9,1.4c4.4,0.8,8.6,2.9,12.9,4.4c-3,0.2-6,1-8.9,0.6c-14.5-2-28.9-4.2-43.3-6.5c-9.8-1.6-19.6-3.3-29.4-5.3
		c-18.9-3.9-37.7-7.7-56.5-12c-16.5-3.8-33.1-7.7-49.2-12.7c-32.3-10.1-64.7-20.2-96.5-31.8c-63-22.9-123.2-52-181.1-85.8
		c-50.1-29.2-97.8-62-143.4-98c-54.5-43.1-104.9-90.6-150.8-142.7c-25.1-28.5-48.8-58.2-71.6-88.5c-47.7-63.6-87.6-131.9-121.2-204
		c-18.7-40.1-35.8-80.9-49-123.2c-9.6-30.8-19.2-61.6-27.5-92.7c-5.9-22.1-9.8-44.7-14.2-67.2c-3.9-20.2-7.5-40.5-10.7-60.8
		C578.4,2578.2,579.1,2571.8,579,2565.5z"/>
	<path class="st2" d="M3548,1015.2c-3.4,1.2-6.8,3.2-10.3,3.5c-20,1.9-37.8,10.3-55.4,18.9c-28.3,13.8-54.4,31-76.1,54.2
		c-5.7,6.1-11,12.6-15.4,19.6c-7.5,11.8-11.7,24.7-7.2,38.9c3.1,10,9.5,16.3,20.3,18.2c11.4,2.1,22.8,4.3,34,7.3
		c17.1,4.6,22,17.5,20.3,35.2c-1.1,11.5-4.7,22.8-8.2,33.8c-1.3,4-4.9,8.2-8.7,10.3c-12.5,6.9-25.2,13.7-38.4,18.8
		c-16.4,6.3-33.6,10.6-50.3,16.3c-26.4,9-53.3,16.6-77.2,31.8c-19.3,12.4-33.5,29.3-44.8,48.9c-12,20.8-21.5,42.8-28.2,65.9
		c-6,20.6-7.3,41.7-6.5,63.2c1.1,29.7,12.2,55.5,27.8,80c16.8,26.2,37.5,49.2,57.5,72.9c16.4,19.3,33.1,38.4,46.1,60.2
		c6.4,10.9,11.7,22.4,17.6,33.6c2.4,4.6,1.7,8.7-0.8,13.2c-9.6,17.2-24.9,27.4-42,35.4c-15.1,7-30.4,13.5-45.5,20.4
		c-3,1.4-5.8,3.3-8.6,5.1c-6.8,4.5-9,10-7.6,18.7c2,12.5,3.7,24.8,9.2,36.5c4.1,8.7,9.5,13.9,19.5,14.2c9,0.3,17.9,1.3,26.8,2.6
		c9.2,1.4,18.3,3.4,27.4,5.4c6.5,1.4,9.6,6.7,9.8,12.5c0.5,17.6,0.4,35.3,0,52.9c-0.1,3-2.7,5.9-4.1,8.8c0.2-5.6-0.2-11.3,0.7-16.8
		c2.6-15.4,0.6-30.5-1.4-45.7c-0.6-4.3-3.2-6.6-7-7.3c-13.4-2.5-26.7-5-40.2-7.1c-5.2-0.8-10.6-0.4-15.9-0.9
		c-6.7-0.6-11.8-3.8-15.2-9.8c-9.4-16.2-14.3-33.5-13.8-52.4c0.2-6.1,2.6-10.4,7.5-13.1c11.1-6.1,22.2-11.9,33.6-17.4
		c11.6-5.7,23.7-10.5,35.2-16.5c9.8-5.1,17.9-12.3,24.6-21.5c5.2-7.1,5.5-13.6,1.9-21.3c-9.8-21.3-22.6-40.8-37.3-58.9
		c-17.5-21.4-35.8-42.1-53.3-63.5c-16.5-20.1-31.9-41-42.8-64.8c-12.1-26.3-16.9-54.1-13.9-82.7c3.1-29.7,12.5-57.8,26-84.4
		c6.5-12.7,13.7-25.1,21.7-36.9c16.7-24.7,41-39.6,68.5-49.4c25.3-9,51.1-16.8,76.7-25.3c17.7-5.9,35.1-12.4,51.3-21.8
		c7.1-4.1,11-10,13.1-17.9c3-11,4.9-22,4.5-33.5c-0.5-14.4-5.3-21.2-19.4-25c-8.3-2.2-16.9-3.5-25.5-4.5
		c-15.6-1.9-27.3-11.3-29.7-25.2c-2.1-11.9,0.4-23.1,5.9-33.8c7.8-15.1,18.8-27.5,31.5-38.4c29.1-24.9,61.8-44,98-56.7
		C3524.7,1016.1,3536,1011.9,3548,1015.2z"/>
	<path class="st2" d="M129.3,1361c4.2,0.4,8.6,0.1,12.5,1.4c25.2,8.4,47.7,21.9,69.5,36.7c30.3,20.6,60,42.1,93.1,58.2
		c26.4,12.9,53.7,20.8,83.5,19.8c16.7-0.5,33.4-0.4,49.4-5.5c20.6-6.6,40.5-15,58.7-27.1c32-21.3,59-47.9,81.1-79.2
		c8.5-12.1,14.1-26.4,21.1-39.5c5.8-10.9,11-22.2,18-32.2c5.2-7.4,12.6-13.6,19.8-19.4c5.6-4.6,12.1-4.2,18.5,0.1
		c12.7,8.6,25.6,16.9,38.6,25c7.6,4.7,15.4,9.3,23.6,13.1c19.8,9.3,39.6,8.9,57.8-3.7c9.8-6.8,18.5-15.2,27.5-23
		c1.6-1.4,3.5-4.1,3.2-5.8c-2-12.6-1.5-26.2-13.9-34.8c-6.8-4.7-13-10.4-19.7-15.3c-20.8-15.3-26.8-36.6-24.6-60.9
		c2.1-22.1,5.7-44.2,8-66.3c1.9-18.3-1.1-35.8-11-51.7c-10.8-17.2-26.4-29.9-41.4-43.1c-21.3-18.7-42.5-37.4-60.7-59.3
		c-17.9-21.6-26.7-45.8-23-74c1.4-11.1,6-21.1,11.7-30.5c3.6-5.9,6.4-6.2,12.1-1.4c9.8,8.1,20.2,15.2,32.5,19.2
		c3.5,1.1,7.1,1.6,10.5,2.8c3.7,1.3,7.2,3,10.8,4.5c-13.7,2.2-25.3-4.1-36.8-9.9c-5.9-3-11.1-7.2-16.7-10.9
		c-2.1-1.4-4.3-2.6-7.3-4.4c-11.6,18.5-17.2,37.2-12.6,58.3c6.2,28.1,24.1,48.6,43.7,67.8c14.3,14,29.9,26.5,44.4,40.3
		c11.6,11,23,22.3,33.1,34.5c10.5,12.6,14.5,28,14.9,44.6c0.6,21.2-4.7,41.6-6.7,62.5c-1.2,12.2-2,24.6-1.1,36.8
		c1.1,15.7,9.3,28.2,22,37.6c6.4,4.8,12.7,9.7,19,14.6c12.8,9.8,17.5,23.1,16.5,38.7c-0.2,2.5-0.9,5.5-2.5,7.3
		c-10.4,11.4-21.9,21.3-35.5,28.8c-20.4,11.1-40.5,8.9-60.1-1.4c-10.9-5.7-21.1-12.6-31.6-19.1c-9.3-5.8-18.7-11.6-27.7-17.8
		c-4.5-3.1-8.4-3.1-12.9-0.2c-8.5,5.5-16,12.2-21,21c-7.1,12.8-14.4,25.6-20.3,38.9c-9.2,20.7-21.7,39-36.6,55.7
		c-19.8,22.2-41.6,42.2-67.1,58c-17.1,10.6-35.2,18.5-54.6,23.9c-15.5,4.4-31,7.2-47.1,7.6c-32.8,0.8-63.1-8.4-92.1-22.6
		c-26.4-12.9-50.3-29.9-74.7-46.2c-22.1-14.8-43.9-30.3-68.4-41c-6.1-2.6-12.5-4.5-18.6-7C135.1,1364.1,132.3,1362.4,129.3,1361z"/>
	<path class="st2" d="M2306.1,1069.3c8.9-3.4,16.4,1.6,23.7,5c7.8,3.6,14.9,8.7,22.1,13.6c8,5.4,15.3,12,23.7,16.6
		c7.5,4.1,15.8,7,24.1,9c4.1,1,9.6-0.1,13.3-2.2c13.3-7.5,26.3-15.6,39-24.1c13.4-8.9,27.2-16.7,42.7-21.3c5.7-1.7,11.6-2.8,17.4-4
		c5.8-1.2,8.3-4.5,8.3-10.5c0-3.9,0.9-7.9,1.7-11.8c1.7-7.9,6.2-14.2,13.5-17.7c17.8-8.6,25.2-22.3,23.3-42
		c-0.8-8.1,0.9-16.6,2-24.8c1-7.3,5.9-9.4,12.3-5.7c7.2,4.3,11.7,11,14.4,18.7c3.3,9.7,6.2,19.7,8.3,29.8c3.1,14.7,6,29.2,12.2,43.1
		c2.4,5.4,1.1,13.2-0.3,19.5c-1.9,8.7-5.5,17.1-8.4,25.6c-0.5,1.6-1.2,3.1-1.7,4.7c-3.4,11.6-3.4,22.3,3,33.5
		c17.8,31.2,38.3,60.1,66.6,82.8c14.7,11.8,30.7,21.5,48.9,26.3c22.1,5.7,44.5,5.1,65.4-5c10.7-5.2,20.8-11.8,30.4-18.9
		c12.1-9,16.6-23,20.3-36.9c5.6-21.2,10.8-42.4,16.2-63.7c0.4-1.6,0.7-3.3,1.3-4.8c4.3-11,7.1-12.4,18-7.7
		c18.4,7.9,37.5,14.2,57.2,16.9c20.3,2.9,40.9,6.3,61.6,2.2c10.4-2,21-3.4,31.5-4.6c4.9-0.5,9.9,0.1,14.9,0.3
		c-2.7,1.1-5.4,2.8-8.2,3.4c-29.2,5.6-58.8,8.2-88.4,4.6c-22.1-2.7-43.7-8.5-64.4-17.1c-1.8-0.8-3.6-1.7-5.5-2.2
		c-7.7-2.4-9.7-2.1-12.1,5.4c-4.6,14.2-8.1,28.7-12.1,43.1c-3.7,13.4-7.3,26.9-11.3,40.2c-3.6,11.9-11.4,20.9-21.3,28.2
		c-21.5,15.7-45,25.7-72.3,24.4c-14.5-0.7-28.1-4.9-41.1-11.2c-25-12.1-45.4-30-63.2-51.1c-15.3-18.2-28-38-38.8-59.1
		c-4.1-8.1-4.3-15.9-1.8-24.1c2.2-7.3,5-14.5,7.2-21.8c2.3-7.6,4.4-15.3,6.1-23.1c0.6-2.7,0.6-6.4-0.7-8.6
		c-9.1-15.3-10-32.9-14.3-49.6c-2.4-9.3-5.3-18.5-8.9-27.4c-1.7-4.1-5.1-7.8-8.6-10.7c-4.4-3.6-8.2-1.7-9.2,4
		c-0.4,2.3-0.4,4.6-0.4,7c-0.1,7.7-0.8,15.4,0,23c1.4,13.7-5.5,22.8-15.5,30.4c-3.7,2.8-7.8,5.1-11.7,7.6
		c-6.9,4.5-10.9,10.6-10.7,19.1c0.1,3.7,0,7.3-0.3,11c-0.6,6.4-2.2,8.7-8.3,9.2c-25.9,2.2-47.3,14.7-68.2,28.7
		c-8.8,5.9-18.1,11.2-26.7,17.4c-11.4,8.1-23.2,7.2-34.9,2.2c-8.8-3.8-17-9-25.1-14.1c-6.8-4.2-12.7-9.8-19.7-13.7
		c-8.6-4.8-17.9-8.6-26.9-12.7C2312.1,1071.9,2309.1,1070.6,2306.1,1069.3z"/>
	<path class="st2" d="M3056.5,464.8c-0.8,1.8-1.2,4-2.5,5.3c-14.8,14.2-22.4,32.9-32,50.3c-20.2,36.7-40.4,73.5-60.4,110.2
		c-4.4,8.1-10.8,12.7-19.7,15.4c-19.4,5.8-39,4.6-58.4,2.1c-20-2.6-39.9-3.3-59.8-2.1c-16.5,1.1-31.7,7.4-44.5,18.2
		c-8.7,7.3-17,14.9-25.3,22.7c-4.8,4.4-9.4,4.8-15.4,2.5c-17.9-7-36.1-13.5-54.2-20.1c-15.8-5.8-32.2-7.2-48.9-8.3
		c-29-2-53.5,7-75.3,25.5c-12.8,10.8-27.3,19-43.6,23.6c-8.2,2.3-16.2,2.5-24.4-0.8c-30.9-12.3-61.8-24.4-92.9-36.1
		c-8.9-3.4-18.5-5-27.7-7.6c-4.1-1.2-8-2.9-12-4.3c12.4-2.8,23.9,1.7,34.9,5.8c30.6,11.3,60.9,23.4,91.1,35.7c16.4,6.7,32,5.5,47-3
		c9.8-5.5,18.9-12.5,28.3-18.6c8.6-5.6,16.9-12.2,26.2-16.4c21.6-9.7,44.4-10.4,67.5-6.7c27.2,4.3,52.4,14.8,77.8,24.7
		c1.9,0.7,3.8,1.3,5.6,2.1c6.6,2.5,12.2,1.4,17.2-3.9c4.1-4.4,8.8-8.2,13-12.4c23-22.9,51.3-29.1,82.6-26.9
		c22.3,1.6,44.6,2.7,66.9,3.1c8.8,0.1,17.8-2,26.5-3.7c6.2-1.2,10.1-5.4,13.3-11.1c23.3-42.7,46.9-85.1,70.3-127.7
		c6.6-12,12.8-24.2,23.2-33.5C3052.5,467,3054.6,466,3056.5,464.8z"/>
	<path class="st2" d="M3279,1134.7c-0.3-2.6-1.2-5.3-0.9-7.9c3-24.6,7.5-48.7,24.1-68.5c4.9-5.8,10.5-11.1,16.3-16.1
		c3.8-3.3,6.3-6.7,5.8-11.9c-0.9-9.3-1.8-18.5-2.7-27.8c-1.7-18.5-4.4-37.1-4.8-55.6c-0.3-15.7,3.1-31,11.1-45.1
		c5-8.8,11.3-13.6,22.3-13.3c33.2,0.7,65.6,6,97.2,16c7.6,2.4,13,1.2,18.8-4.5c26-25.3,52.1-50.6,78.8-75.1
		c17.6-16.2,36.3-31.3,56.6-44.2c6.1-3.9,12.2-5,19-4c5.3,0.8,8.8,3.7,8.8,9.1c0.1,17.3,0,34.6-0.5,51.9c-0.1,3-2.6,5.9-4,8.8
		c0.1-9,0.3-17.9,0.4-26.9c0-9.3,0.4-18.6-0.3-27.9c-0.9-11.7-8.6-15.5-18.7-9.1c-10.1,6.4-20,13.3-29.4,20.7
		c-36.8,28.8-70.1,61.5-102.8,94.6c-14.6,14.8-14.5,14.3-34.2,8.5c-20.4-6.1-41-11.2-62.5-11.6c-9-0.2-18-0.6-26.9-1.5
		c-9.8-1-15.9,3.9-20,11.8c-5.1,9.8-8.5,20.4-8.8,31.4c-0.5,17.3-0.9,34.5,2.6,51.7c2.8,13.6,3.3,27.7,5.1,41.5
		c0.8,6.3-1.4,10.7-6.7,14.4c-19.4,13.3-30.4,32.2-35.3,54.8c-1.7,7.8-2.7,15.7-4.4,23.5C3282,1126.7,3280.3,1130.6,3279,1134.7z"/>
	<path class="st2" d="M3328.9,1976.1c0.1,3.2,0.8,6.7,0.1,9.7c-6,24.3-15.9,47.1-25.5,70.1c-9.1,21.7-18.6,43.4-26,65.8
		c-5.5,16.5-10.3,33.6-10.1,51.5c0.1,3.6-0.6,7.3-1.4,10.9c-1.5,7-4.8,11.4-13.1,12.4c-11.1,1.3-22.1,4.5-33,7.3
		c-2.7,0.7-5.7,2.3-7.2,4.5c-13.5,19-20.1,40.4-19.3,63.7c0.2,5.6,2.1,11.1,2.9,16.7c0.6,4.6,1,9.3,0.9,13.9c0,1.3-2,2.5-3.1,3.8
		c-0.6-5.6-0.9-11.2-1.9-16.7c-5.5-30.2-0.9-58.2,17.1-83.5c3.1-4.4,7.2-6.7,12.3-7.6c9.8-1.7,19.6-3.5,29.4-5.4
		c8.1-1.5,10-2.8,10.7-10.7c4.1-46,20-88.4,38.6-130.2c8.1-18.2,14.7-37,21.8-55.6C3324.6,1990,3326.6,1983,3328.9,1976.1z"/>
	<path class="st2" d="M3199.9,50c6.2,9.5,8.4,20.1,8.6,31.3c0.5,26,0.9,51.9,1.6,77.9c0.3,12.6,1.7,25.3,1.6,37.9
		c-0.2,16.9-0.7,34-2.6,50.8c-2.5,22-9.2,42.9-21.1,61.8c-17.2,27.4-36.7,53-58.9,76.5c-9.1,9.7-17.6,19.9-26.7,29.7
		c-3.5,3.8-7.7,7.1-11.6,10.6c5.4-7,10.2-14.6,16.1-21.1c23.1-25.3,45.9-50.8,65.8-78.8c12.4-17.5,23-35.9,28.4-56.7
		c2.9-11.2,5.4-22.9,5.4-34.3c-0.2-51.9-1.1-103.7-2.3-155.6c-0.2-7.5-3-14.8-4.3-22.3C3199.5,55.2,3199.9,52.6,3199.9,50z"/>
	<path class="st2" d="M2124.7,838.1c0,9.6,0,19.1,0,28.7c0,11.6,0,23.2,0.1,34.8c0,1.7,0.5,3.3,0.5,5c-0.2,19.7,3.7,38.8,8,58
		c4,18,9.7,35.2,17.6,51.7c3.4,7.2,7.8,13.9,11.9,20.7c16.6,27.7,42.1,35.8,72.6,33c8.3-0.8,16.6-1.4,24.9-1.7
		c3.2-0.1,6.5,0.7,9.8,1c-6.4,1.4-12.8,3.5-19.4,3.9c-11.3,0.8-22.6,0.8-33.9,0.8c-16.7-0.1-30.9-6.4-43.1-17.9
		c-15.6-14.8-25.2-33.3-32.8-53c-8.8-22.7-13.8-46.2-17.6-70.3c-4.1-25.9-3.4-51.7-2.6-77.6C2120.8,849.5,2123.3,843.8,2124.7,838.1
		z"/>
	<path class="st2" d="M1636.1,3615.3c9.6,0.2,19.1,0.2,28.7,0.6c3.6,0.2,7.2,1.7,10.8,1.9c40.5,1.5,81.1,3.5,121.6,3.8
		c25.2,0.2,50.5-1.8,75.7-3.8c17.5-1.4,34.9-4.6,52.3-6.5c6.2-0.7,12.5-0.1,18.7,0c-5.4,1.5-10.6,3.8-16.1,4.3
		c-24.7,2.7-49.5,5.2-74.3,7.2c-13.6,1.1-27.2,1.9-40.8,1.8c-37.2-0.1-74.4-0.4-111.7-1.4c-17.2-0.5-34.5-2.5-51.6-4.2
		C1644.8,3618.6,1640.5,3616.6,1636.1,3615.3z"/>
	<path class="st2" d="M3036,1110.7c6.5-4.3,13.9-4,21.2-3.9c20.6,0.3,37.5,7.5,48.7,25.8c4.7,7.6,10,14.9,15.7,21.9
		c7.8,9.6,18,15.2,30.1,18.3c17.5,4.4,34.6,3.8,52.3,0.8c20-3.4,39.6-8.4,59.2-13.1c8.2-2,12-6,13-14c0.4-2.9,1.7-5.6,2.5-8.5
		c0.2,0.6,0.6,1.2,0.7,1.9c1.7,17.3,0.8,19.5-15.5,24.2c-32.9,9.5-66.1,18-100.9,14.7c-20.7-1.9-37.5-10.5-49.5-27.9
		c-4.9-7.1-9.7-14.3-14.9-21.2c-9.2-12.3-21.3-18.5-36.9-18.2C3053.2,1111.7,3044.6,1111,3036,1110.7z"/>
	<path class="st2" d="M2324.5,661.1c-3.7,1.4-7.2,3.6-11,4.1c-32.8,4.4-61.6,18.4-89,36c-27.2,17.4-50.5,39-70.3,64.5
		c-13.4,17.2-20.4,37.1-24.7,58.2c-0.7,3.7-3,7.1-4.6,10.7c-2.4-9.3,2.2-17.7,4.4-26.2c5.5-21.5,16.4-40.5,31.4-57
		c29.6-32.7,63.3-59.8,104.5-76.3c14.7-5.9,30.2-9.8,45.5-13.9C2315,659.9,2319.9,661,2324.5,661.1z"/>
	<path class="st2" d="M578.7,2286.1c-0.2,9.5-0.2,19.1-0.6,28.6c-0.2,3.6-1.8,7.2-1.8,10.8c0.2,40.2-6.3,80.2-4.2,120.5
		c1.3,25.2,2.5,50.4,4.1,75.6c0.7,10.2,2.5,20.4,3.5,30.6c0.3,3.2-0.6,6.5-0.9,9.8c-1.4-5.4-3.5-10.8-4-16.3
		c-4.2-46.1-6-92.3-5.7-138.7c0.2-36,3.3-71.8,5.9-107.7C575.3,2294.8,577.4,2290.5,578.7,2286.1z"/>
	<path class="st2" d="M125.2,1572.1c1.4-7.8,2.2-15.7,4.5-23.2c3.8-12.4,8.5-24.4,13.1-36.6c2.3-6.2,2.4-12.2-0.4-18.4
		c-5.6-12.5-9-25.6-10.5-39.3c-0.8-7.2-3.3-14.2-4.8-21.4c-1.5-6.8-2.5-13.7-4.1-20.4c-1.8-8.1-4.1-16.1-6-24.1
		c-1.4-5.8-2.9-11.6-3.7-17.5c-0.8-6.1,1.2-8.4,7.4-10.2c-4.4,5.1-3.9,11.1-2.6,17c6.1,26.1,13.3,52,18.2,78.3
		c2.7,14.5,6.4,28.3,12.2,41.8c1.3,3.1,0.4,7.9-0.9,11.3c-7.8,20.5-15.1,41-19.6,62.6C127.1,1572,126.2,1572.1,125.2,1572.1z"/>
	<path class="st2" d="M3624.7,856.1c0.3,4.6,1.6,9.4,0.6,13.7c-3.1,13.8-5.5,27.9-14.1,39.8c-3.9,5.3-6.8,11.3-10.1,17.1
		c-4.7,8.5-7.6,17.5-8.6,27.2c-1.3,12.1-3.5,24.1-5.3,36.2c-0.2-6.9-1.2-13.9-0.6-20.7c1.8-19.2,5.2-37.8,16.5-54.4
		c5.6-8.1,9.7-17.3,13.6-26.4c2.2-5.1,2.4-10.9,3.7-16.3C3621.8,866.9,3623.3,861.5,3624.7,856.1z"/>
	<path class="st2" d="M3587.2,993.4c1.6,11.9-1,16.3-11.7,20.2c-7.9,2.9-16,3.2-24.1,1.4c6-1.5,11.9-3.8,17.9-4.2
		c8.5-0.5,13.3-4.3,15.3-12.3C3585,996.7,3586.3,995.1,3587.2,993.4z"/>
	<path class="st2" d="M3090.5,426.8c-1.7,2.8-3.1,5.8-5.2,8.2c-7.1,8.2-14.3,16.2-21.7,24.1c-1.9,2.1-4.5,3.6-6.8,5.4
		c2.1-3.3,3.8-6.8,6.3-9.7c6.7-7.8,13.5-15.4,20.5-22.9C3085.5,429.8,3088.2,428.5,3090.5,426.8z"/>
	<path class="st2" d="M1737.5,564.9c12.4-5.6,24.7-4.8,37.1,0C1762.2,564.9,1749.8,564.9,1737.5,564.9z"/>
	<path class="st2" d="M1947.5,3611c7-5.7,15-5.3,23.2-3.9C1963.6,3612.2,1955.7,3612.4,1947.5,3611z"/>
	<path class="st2" d="M2275.5,1069.1c9-3.6,18-4.4,26.9,0C2293.5,1069.1,2284.5,1069.1,2275.5,1069.1z"/>
	<path class="st2" d="M2355.9,660.9c-8.6,0-17.2,0-25.8,0C2338.7,657.7,2347.3,657.8,2355.9,660.9z"/>
	<path class="st2" d="M124.1,1611.9c-4.9-7.3-4.9-16.4,0.1-23.8C124.1,1596.1,124.1,1604,124.1,1611.9z"/>
	<path class="st2" d="M3189.9,2306.8c-6.3,2.1-11.5-0.4-16.4-3.8C3179.7,2301.1,3185.2,2302.4,3189.9,2306.8z"/>
	<path class="st2" d="M700.1,869.2c5.3,0,10.6,0,15.8,0C710.6,871.6,705.3,871.6,700.1,869.2z"/>
	<path class="st1" d="M125.2,1572.1c0.9,0,1.8-0.1,2.8-0.1c2.1,4.4,0.2,7.6-3.1,10.4C125,1578.9,125.1,1575.5,125.2,1572.1z"/>
	<path class="st1" d="M3041.3,3552.1c0,3.3,0,6.5,0,9.8C3041.2,3558.6,3041.2,3555.4,3041.3,3552.1z"/>
	<path class="st1" d="M125.9,1624.9c0.6-0.6,1.2-1.2,1.9-1.8c0.3,1,0.5,2,0.8,3C127.6,1625.7,126.7,1625.3,125.9,1624.9z"/>
	<path class="st2" d="M125.9,1624.9c0.9,0.4,1.8,0.8,2.6,1.2c-0.1,1.2-0.1,2.4-0.2,3.7c-0.8-1.7-1.6-3.4-2.5-5.1
		C125.8,1624.7,125.9,1624.9,125.9,1624.9z"/>
</g>
</svg>
