<?xml version="1.0" encoding="utf-8"?>
<!-- Generator: Adobe Illustrator 28.0.0, SVG Export Plug-In . SVG Version: 6.00 Build 0)  -->
<svg version="1.1" id="Layer_1" xmlns="http://www.w3.org/2000/svg" xmlns:xlink="http://www.w3.org/1999/xlink" x="0px" y="0px"
	 viewBox="0 0 476.7 476.5" style="enable-background:new 0 0 476.7 476.5;" xml:space="preserve">
<style type="text/css">
	.st0{fill:#BFBFBF;}
</style>
<path class="st0" d="M0,192.5C0.1,92.2,76.6,9.1,176.7,0.7c102.7-8.6,192.1,61.1,207.7,162.9c7.5,48.6-1.9,94.4-29.3,135.8
	c-4.4,6.6-4.6,10.1,1.4,16c35.9,34.9,71.4,70.3,106.8,105.8c4.9,5,9.6,11.2,11.7,17.7c3.8,11.6,1,22.5-8.9,30.8
	c-9.2,7.7-22.7,9.2-32.9,2.6c-7.2-4.7-13.7-10.8-19.8-17c-33.1-33.4-66.2-66.8-98.9-100.7c-5.7-5.9-9.2-3.5-14.4-0.1
	c-69.3,45.2-159.1,41.9-225-8.2C28,310.5,0,253.1,0,192.5z M328.2,193.8c3.5-65.1-51.2-136-134.9-136.3
	c-74.4-0.2-135.9,61.1-135.9,135.3c0,74.6,60.8,135.4,135.4,135.4C268.7,328.3,328.2,269.2,328.2,193.8L328.2,193.8z"/>
</svg>
