<?xml version="1.0" encoding="utf-8"?>
<!-- Generator: Adobe Illustrator 28.0.0, SVG Export Plug-In . SVG Version: 6.00 Build 0)  -->
<svg version="1.1" id="Layer_1" xmlns="http://www.w3.org/2000/svg" xmlns:xlink="http://www.w3.org/1999/xlink" x="0px" y="0px"
	 viewBox="0 0 512 512" style="enable-background:new 0 0 512 512;" xml:space="preserve">
<style type="text/css">
	.st0{fill:#DAA520;}
</style>
<g transform="translate(0.000000,512.000000) scale(0.100000,-0.100000)">
	<path class="st0" d="M1282,5113c-7-3-19-18-28-35c-27-52-6-80,105-143c54-30,107-55,120-55c30,0,71,43,71,75c0,36-31,64-131,118
		C1337,5118,1312,5125,1282,5113z"/>
	<path class="st0" d="M3695,5069c-100-56-125-79-125-116c0-30,42-73,72-73c34,0,211,103,226,131c24,46-12,109-62,109
		C3794,5120,3744,5097,3695,5069z"/>
	<path class="st0" d="M2030,4836c-101-27-135-64-114-123c15-42,51-50,134-29c87,23,158,17,234-17c111-51,188-158,202-281
		c7-66,29-96,70-96c56,0,76,30,88,132c13,106,106,219,209,255c79,27,188,24,257-8c100-47,154-108,184-209c40-135-2-269-143-455
		c-103-136-343-360-524-489l-68-48l-97,73c-329,250-546,487-618,675c-33,86-38,194-11,270c21,59,11,94-30,113c-33,15-47,14-75-8
		c-59-46-84-263-44-381c55-161,152-298,355-500c180-179,474-410,521-410c53,0,322,211,515,405c268,267,385,465,385,650
		c0,194-102,360-272,440c-202,96-419,57-567-101l-62-66l-22,29C2423,4806,2202,4884,2030,4836z"/>
	<path class="st0" d="M1071,4374c-24-31-26-43-10-78c16-34,56-46,154-46c91,0,140,13,155,40c16,30,12,68-10,90c-18,18-33,20-144,20
		C1093,4400,1091,4400,1071,4374z"/>
	<path class="st0" d="M3760,4380c-38-38-22-100,31-119c41-14,187-14,227,0c34,12,58,56,47,88c-14,46-29,51-161,51
		C3793,4400,3778,4398,3760,4380z"/>
	<path class="st0" d="M1361,3725c-56-31-100-65-108-79c-25-48,10-106,65-106c29,0,208,105,222,130c5,10,10,28,10,40
		c0,28-43,70-72,70C1465,3780,1412,3755,1361,3725z"/>
	<path class="st0" d="M3595,3755c-55-54-24-100,118-175c74-39,89-43,113-35c37,13,59,56,47,93c-7,20-35,42-109,85
		c-54,31-109,57-122,57S3608,3769,3595,3755z"/>
	<path class="st0" d="M1455,3214C797,3115,283,2699,90,2110c-57-175-74-285-74-495c0-239,26-389,105-590C315,526,779,145,1328,34
		c406-82,835-2,1165,217c32,22,62,39,67,39s42-21,81-46C3004,9,3503-59,3945,66c171,48,414,168,495,244c36,33,40,76,10,108
		c-33,35-69,28-166-34c-164-103-333-172-514-211c-66-14-128-18-275-18c-170,1-202,4-303,28c-570,134-1023,597-1143,1170
		c-29,136-31,370-5,507c36,184,113,380,211,531l47,72l82-82l83-83l-48-80c-168-279-205-643-99-969c102-312,333-585,617-732
		c182-94,343-132,558-131c275,1,514,79,730,238c643,476,672,1435,57,1927c-229,183-471,276-748,286c-226,9-392-25-580-118l-101-50
		l-83,81c-45,45-80,83-78,84c1,2,35,21,73,43c138,80,292,137,465,174c147,31,390,31,537,0c199-42,399-129,566-248
		c105-74,276-245,350-350c125-176,227-419,261-622c21-122,21-331,0-452c-45-264-175-531-361-742c-57-64-36-147,37-147
		c80,0,309,331,395,570c118,331,122,697,9,1045c-38,119-154,347-231,455c-87,121-252,286-373,373c-173,123-399,220-615,264
		c-139,28-493,25-632-5c-198-43-389-120-540-217l-73-47l-72,48c-88,58-246,134-351,169c-158,53-248,66-457,70
		C1573,3217,1472,3216,1455,3214z M1865,3055c489-79,899-402,1103-867c194-443,159-952-93-1346c-26-39-51-72-56-72
		c-14,0-148,130-154,149c-3,11,10,44,35,84c52,87,105,215,132,324c19,75,23,115,22,268c0,154-3,193-23,272
		c-145,584-626,973-1201,973c-812,0-1403-767-1195-1550c102-384,418-711,816-844c137-46,233-61,389-61c209,0,355,34,537,125l92,47
		l82-83l82-83l-64-40c-83-53-221-113-331-145c-354-102-747-59-1088,121c-148,77-248,152-370,273C221,958,85,1451,205,1956
		c98,412,378,765,761,957c148,74,296,120,484,150C1516,3074,1783,3069,1865,3055z M1915,2656c82-24,255-99,255-110c0-2-23-42-52-88
		c-98-157-167-331-210-525c-19-84-22-130-22-318c0-191,3-233,22-322c43-197,118-383,223-548c23-36,40-67,38-69c-12-10-122-62-177-83
		c-429-161-950,1-1240,386c-228,303-273,734-112,1078c151,323,461,556,829,624c25,4,116,6,201,5C1802,2683,1838,2678,1915,2656z
		 M3673,2675c219-38,444-159,605-324c271-277,368-689,251-1060c-171-537-757-866-1301-727c-89,22-278,101-278,115c0,3,19,33,41,66
		c56,83,142,264,173,362c58,188,70,271,70,503c0,186-3,229-23,320c-44,205-116,386-217,543c-24,37-44,70-44,72c0,21,254,118,351,134
		C3388,2693,3580,2691,3673,2675z M2611,2065c109-233,128-540,49-785c-26-78-88-210-99-210s-69,121-97,202c-75,222-69,498,16,726
		c29,77,69,152,81,152C2567,2150,2589,2112,2611,2065z"/>
</g>
</svg>
